<svg width="2000" height="900" viewBox="0 0 2000 900" fill="none" xmlns="http://www.w3.org/2000/svg">
  <defs>
    <linearGradient id="sky" x1="0" y1="0" x2="2000" y2="900" gradientUnits="userSpaceOnUse">
      <stop stop-color="#EAF3FF"/>
      <stop offset="0.52" stop-color="#BDD5EF"/>
      <stop offset="1" stop-color="#7FA4CB"/>
    </linearGradient>
    <linearGradient id="ground" x1="0" y1="540" x2="0" y2="900" gradientUnits="userSpaceOnUse">
      <stop stop-color="#5C7696" stop-opacity="0.05"/>
      <stop offset="1" stop-color="#2B415D" stop-opacity="0.35"/>
    </linearGradient>
    <linearGradient id="panel" x1="1240" y1="160" x2="1860" y2="680" gradientUnits="userSpaceOnUse">
      <stop stop-color="#F5FAFF"/>
      <stop offset="1" stop-color="#D2E4F6"/>
    </linearGradient>
    <linearGradient id="accent" x1="220" y1="182" x2="1220" y2="182" gradientUnits="userSpaceOnUse">
      <stop stop-color="#2A83FF"/>
      <stop offset="1" stop-color="#0E5ABF"/>
    </linearGradient>
  </defs>

  <rect width="2000" height="900" fill="url(#sky)"/>
  <rect y="540" width="2000" height="360" fill="url(#ground)"/>

  <g opacity="0.22" stroke="#88A7C8" stroke-width="1">
    <path d="M120 120H1880"/>
    <path d="M120 190H1880"/>
    <path d="M120 260H1880"/>
    <path d="M120 330H1880"/>
    <path d="M120 400H1880"/>
    <path d="M120 470H1880"/>
    <path d="M120 540H1880"/>
    <path d="M120 610H1880"/>
    <path d="M120 680H1880"/>
    <path d="M120 750H1880"/>
  </g>

  <g opacity="0.16" stroke="#7F9FBE" stroke-width="1">
    <path d="M220 80V820"/>
    <path d="M380 80V820"/>
    <path d="M540 80V820"/>
    <path d="M700 80V820"/>
    <path d="M860 80V820"/>
    <path d="M1020 80V820"/>
    <path d="M1180 80V820"/>
    <path d="M1340 80V820"/>
    <path d="M1500 80V820"/>
    <path d="M1660 80V820"/>
    <path d="M1820 80V820"/>
  </g>

  <g>
    <rect x="160" y="520" width="260" height="180" rx="12" fill="#486482" fill-opacity="0.55"/>
    <rect x="420" y="470" width="330" height="230" rx="12" fill="#425D7A" fill-opacity="0.5"/>
    <rect x="748" y="500" width="220" height="200" rx="12" fill="#4C6784" fill-opacity="0.48"/>
    <rect x="962" y="450" width="270" height="250" rx="12" fill="#3F5A77" fill-opacity="0.52"/>
    <rect x="1228" y="490" width="210" height="210" rx="12" fill="#4F6A87" fill-opacity="0.5"/>
  </g>

  <path d="M220 182H1220" stroke="url(#accent)" stroke-width="5"/>
  <text x="220" y="152" fill="#2B4E74" font-family="Manrope, Arial, sans-serif" font-size="32" letter-spacing="5">SAFEWELL NEWSROOM</text>
  <text x="220" y="270" fill="#10233A" font-family="Manrope, Arial, sans-serif" font-size="102" font-weight="700">Latest News</text>
  <text x="220" y="350" fill="#0C4FAD" font-family="Manrope, Arial, sans-serif" font-size="62" font-weight="700">Industrial Insight & Updates</text>
  <text x="220" y="408" fill="#2A496D" font-family="IBM Plex Sans, Arial, sans-serif" font-size="29">Factory stories, OEM/ODM methods, and technical guides</text>

  <g>
    <rect x="1240" y="160" width="620" height="520" rx="24" fill="url(#panel)" stroke="#AFC8E1" stroke-width="3"/>
    <rect x="1274" y="196" width="552" height="150" rx="14" fill="#E0EEFC" stroke="#B3CAE2" stroke-width="2"/>
    <rect x="1274" y="370" width="264" height="278" rx="14" fill="#D7E7F8" stroke="#B3CAE2" stroke-width="2"/>
    <rect x="1562" y="370" width="264" height="278" rx="14" fill="#D3E5F7" stroke="#B3CAE2" stroke-width="2"/>

    <rect x="1300" y="228" width="500" height="18" rx="9" fill="#2A83FF" fill-opacity="0.78"/>
    <rect x="1300" y="261" width="404" height="16" rx="8" fill="#6EA4DB" fill-opacity="0.65"/>
    <rect x="1300" y="291" width="330" height="14" rx="7" fill="#7EB0E0" fill-opacity="0.52"/>

    <rect x="1302" y="410" width="208" height="14" rx="7" fill="#3389FF" fill-opacity="0.8"/>
    <rect x="1302" y="438" width="172" height="12" rx="6" fill="#7FAFDE" fill-opacity="0.6"/>
    <rect x="1592" y="410" width="206" height="14" rx="7" fill="#3389FF" fill-opacity="0.8"/>
    <rect x="1592" y="438" width="154" height="12" rx="6" fill="#7FAFDE" fill-opacity="0.6"/>
  </g>
</svg>
